<svg width="342" height="40" viewBox="0 0 342 40" fill="none" xmlns="http://www.w3.org/2000/svg">
<path d="M0.583984 22.104C0.583984 18.776 1.30398 15.816 2.74398 13.224C4.18398 10.6 6.18398 8.568 8.74399 7.128C11.336 5.656 14.264 4.92 17.528 4.92C21.528 4.92 24.952 5.976 27.8 8.088C30.648 10.2 32.552 13.08 33.512 16.728H24.488C23.816 15.32 22.856 14.248 21.608 13.512C20.392 12.776 19 12.408 17.432 12.408C14.904 12.408 12.856 13.288 11.288 15.048C9.71999 16.808 8.93599 19.16 8.93599 22.104C8.93599 25.048 9.71999 27.4 11.288 29.16C12.856 30.92 14.904 31.8 17.432 31.8C19 31.8 20.392 31.432 21.608 30.696C22.856 29.96 23.816 28.888 24.488 27.48H33.512C32.552 31.128 30.648 34.008 27.8 36.12C24.952 38.2 21.528 39.24 17.528 39.24C14.264 39.24 11.336 38.52 8.74399 37.08C6.18398 35.608 4.18398 33.576 2.74398 30.984C1.30398 28.392 0.583984 25.432 0.583984 22.104Z" fill="#2B363E"/>
<path d="M36.9065 25.56C36.9065 22.808 37.4185 20.392 38.4425 18.312C39.4985 16.232 40.9225 14.632 42.7145 13.512C44.5065 12.392 46.5065 11.832 48.7145 11.832C50.6025 11.832 52.2505 12.216 53.6585 12.984C55.0985 13.752 56.2025 14.76 56.9705 16.008V12.216H65.1785V39H56.9705V35.208C56.1705 36.456 55.0505 37.464 53.6105 38.232C52.2025 39 50.5545 39.384 48.6665 39.384C46.4905 39.384 44.5065 38.824 42.7145 37.704C40.9225 36.552 39.4985 34.936 38.4425 32.856C37.4185 30.744 36.9065 28.312 36.9065 25.56ZM56.9705 25.608C56.9705 23.56 56.3945 21.944 55.2425 20.76C54.1225 19.576 52.7465 18.984 51.1145 18.984C49.4825 18.984 48.0905 19.576 46.9385 20.76C45.8185 21.912 45.2585 23.512 45.2585 25.56C45.2585 27.608 45.8185 29.24 46.9385 30.456C48.0905 31.64 49.4825 32.232 51.1145 32.232C52.7465 32.232 54.1225 31.64 55.2425 30.456C56.3945 29.272 56.9705 27.656 56.9705 25.608Z" fill="#2B363E"/>
<path d="M79.3246 16.68C80.2846 15.208 81.4846 14.056 82.9246 13.224C84.3646 12.36 85.9646 11.928 87.7246 11.928V20.616H85.4686C83.4206 20.616 81.8846 21.064 80.8606 21.96C79.8366 22.824 79.3246 24.36 79.3246 26.568V39H71.1166V12.216H79.3246V16.68Z" fill="#2B363E"/>
<path d="M99.8559 3.48V39H91.6479V3.48H99.8559Z" fill="#2B363E"/>
<path d="M117.996 39.384C115.372 39.384 113.004 38.824 110.892 37.704C108.812 36.584 107.164 34.984 105.948 32.904C104.764 30.824 104.172 28.392 104.172 25.608C104.172 22.856 104.78 20.44 105.996 18.36C107.212 16.248 108.876 14.632 110.988 13.512C113.1 12.392 115.468 11.832 118.092 11.832C120.716 11.832 123.084 12.392 125.196 13.512C127.308 14.632 128.972 16.248 130.188 18.36C131.404 20.44 132.012 22.856 132.012 25.608C132.012 28.36 131.388 30.792 130.14 32.904C128.924 34.984 127.244 36.584 125.1 37.704C122.988 38.824 120.62 39.384 117.996 39.384ZM117.996 32.28C119.564 32.28 120.892 31.704 121.98 30.552C123.1 29.4 123.66 27.752 123.66 25.608C123.66 23.464 123.116 21.816 122.028 20.664C120.972 19.512 119.66 18.936 118.092 18.936C116.492 18.936 115.164 19.512 114.108 20.664C113.052 21.784 112.524 23.432 112.524 25.608C112.524 27.752 113.036 29.4 114.06 30.552C115.116 31.704 116.428 32.28 117.996 32.28Z" fill="#2B363E"/>
<path d="M147.263 39.384C144.927 39.384 142.847 38.984 141.023 38.184C139.199 37.384 137.759 36.296 136.703 34.92C135.647 33.512 135.055 31.944 134.927 30.216H143.039C143.135 31.144 143.567 31.896 144.335 32.472C145.103 33.048 146.047 33.336 147.167 33.336C148.191 33.336 148.975 33.144 149.519 32.76C150.095 32.344 150.383 31.816 150.383 31.176C150.383 30.408 149.983 29.848 149.183 29.496C148.383 29.112 147.087 28.696 145.295 28.248C143.375 27.8 141.775 27.336 140.495 26.856C139.215 26.344 138.111 25.56 137.183 24.504C136.255 23.416 135.791 21.96 135.791 20.136C135.791 18.6 136.207 17.208 137.039 15.96C137.903 14.68 139.151 13.672 140.783 12.936C142.447 12.2 144.415 11.832 146.687 11.832C150.047 11.832 152.687 12.664 154.607 14.328C156.559 15.992 157.679 18.2 157.967 20.952H150.383C150.255 20.024 149.839 19.288 149.135 18.744C148.463 18.2 147.567 17.928 146.447 17.928C145.487 17.928 144.751 18.12 144.239 18.504C143.727 18.856 143.471 19.352 143.471 19.992C143.471 20.76 143.871 21.336 144.671 21.72C145.503 22.104 146.783 22.488 148.511 22.872C150.495 23.384 152.111 23.896 153.359 24.408C154.607 24.888 155.695 25.688 156.623 26.808C157.583 27.896 158.079 29.368 158.111 31.224C158.111 32.792 157.663 34.2 156.767 35.448C155.903 36.664 154.639 37.624 152.975 38.328C151.343 39.032 149.439 39.384 147.263 39.384Z" fill="#2B363E"/>
<path d="M190.488 39L183.48 26.28H181.512V39H173.304V5.304H187.08C189.736 5.304 191.992 5.768 193.848 6.696C195.736 7.624 197.144 8.904 198.072 10.536C199 12.136 199.464 13.928 199.464 15.912C199.464 18.152 198.824 20.152 197.544 21.912C196.296 23.672 194.44 24.92 191.976 25.656L199.752 39H190.488ZM181.512 20.472H186.6C188.104 20.472 189.224 20.104 189.96 19.368C190.728 18.632 191.112 17.592 191.112 16.248C191.112 14.968 190.728 13.96 189.96 13.224C189.224 12.488 188.104 12.12 186.6 12.12H181.512V20.472Z" fill="#2B363E"/>
<path d="M208.745 9.432C207.305 9.432 206.121 9.016 205.193 8.184C204.297 7.32 203.849 6.264 203.849 5.016C203.849 3.736 204.297 2.68 205.193 1.848C206.121 0.984002 207.305 0.552002 208.745 0.552002C210.153 0.552002 211.305 0.984002 212.201 1.848C213.129 2.68 213.593 3.736 213.593 5.016C213.593 6.264 213.129 7.32 212.201 8.184C211.305 9.016 210.153 9.432 208.745 9.432ZM212.825 12.216V39H204.617V12.216H212.825Z" fill="#2B363E"/>
<path d="M226.981 16.008C227.749 14.76 228.853 13.752 230.293 12.984C231.733 12.216 233.381 11.832 235.237 11.832C237.445 11.832 239.445 12.392 241.237 13.512C243.029 14.632 244.437 16.232 245.461 18.312C246.517 20.392 247.045 22.808 247.045 25.56C247.045 28.312 246.517 30.744 245.461 32.856C244.437 34.936 243.029 36.552 241.237 37.704C239.445 38.824 237.445 39.384 235.237 39.384C233.349 39.384 231.701 39.016 230.293 38.28C228.885 37.512 227.781 36.504 226.981 35.256V39H218.773V3.48H226.981V16.008ZM238.693 25.56C238.693 23.512 238.117 21.912 236.965 20.76C235.845 19.576 234.453 18.984 232.789 18.984C231.157 18.984 229.765 19.576 228.613 20.76C227.493 21.944 226.933 23.56 226.933 25.608C226.933 27.656 227.493 29.272 228.613 30.456C229.765 31.64 231.157 32.232 232.789 32.232C234.421 32.232 235.813 31.64 236.965 30.456C238.117 29.24 238.693 27.608 238.693 25.56Z" fill="#2B363E"/>
<path d="M276.599 25.176C276.599 25.944 276.551 26.744 276.455 27.576H257.879C258.007 29.24 258.535 30.52 259.463 31.416C260.423 32.28 261.591 32.712 262.967 32.712C265.015 32.712 266.439 31.848 267.239 30.12H275.975C275.527 31.88 274.711 33.464 273.527 34.872C272.375 36.28 270.919 37.384 269.159 38.184C267.399 38.984 265.431 39.384 263.255 39.384C260.631 39.384 258.295 38.824 256.247 37.704C254.199 36.584 252.599 34.984 251.447 32.904C250.295 30.824 249.719 28.392 249.719 25.608C249.719 22.824 250.279 20.392 251.399 18.312C252.551 16.232 254.151 14.632 256.199 13.512C258.247 12.392 260.599 11.832 263.255 11.832C265.847 11.832 268.151 12.376 270.167 13.464C272.183 14.552 273.751 16.104 274.871 18.12C276.023 20.136 276.599 22.488 276.599 25.176ZM268.199 23.016C268.199 21.608 267.719 20.488 266.759 19.656C265.799 18.824 264.599 18.408 263.159 18.408C261.783 18.408 260.615 18.808 259.655 19.608C258.727 20.408 258.151 21.544 257.927 23.016H268.199Z" fill="#2B363E"/>
<path d="M285.057 9.432C283.617 9.432 282.433 9.016 281.505 8.184C280.609 7.32 280.161 6.264 280.161 5.016C280.161 3.736 280.609 2.68 281.505 1.848C282.433 0.984002 283.617 0.552002 285.057 0.552002C286.465 0.552002 287.617 0.984002 288.513 1.848C289.441 2.68 289.905 3.736 289.905 5.016C289.905 6.264 289.441 7.32 288.513 8.184C287.617 9.016 286.465 9.432 285.057 9.432ZM289.137 12.216V39H280.929V12.216H289.137Z" fill="#2B363E"/>
<path d="M303.293 16.68C304.253 15.208 305.453 14.056 306.893 13.224C308.333 12.36 309.933 11.928 311.693 11.928V20.616H309.437C307.389 20.616 305.853 21.064 304.829 21.96C303.805 22.824 303.293 24.36 303.293 26.568V39H295.085V12.216H303.293V16.68Z" fill="#2B363E"/>
<path d="M327.809 39.384C325.185 39.384 322.817 38.824 320.705 37.704C318.625 36.584 316.977 34.984 315.761 32.904C314.577 30.824 313.985 28.392 313.985 25.608C313.985 22.856 314.593 20.44 315.809 18.36C317.025 16.248 318.689 14.632 320.801 13.512C322.913 12.392 325.281 11.832 327.905 11.832C330.529 11.832 332.897 12.392 335.009 13.512C337.121 14.632 338.785 16.248 340.001 18.36C341.217 20.44 341.825 22.856 341.825 25.608C341.825 28.36 341.201 30.792 339.953 32.904C338.737 34.984 337.057 36.584 334.913 37.704C332.801 38.824 330.433 39.384 327.809 39.384ZM327.809 32.28C329.377 32.28 330.705 31.704 331.793 30.552C332.913 29.4 333.473 27.752 333.473 25.608C333.473 23.464 332.929 21.816 331.841 20.664C330.785 19.512 329.473 18.936 327.905 18.936C326.305 18.936 324.977 19.512 323.921 20.664C322.865 21.784 322.337 23.432 322.337 25.608C322.337 27.752 322.849 29.4 323.873 30.552C324.929 31.704 326.241 32.28 327.809 32.28Z" fill="#2B363E"/>
</svg>
